HIERARCHY
ROOT Hips
{
	OFFSET 0.000000 0.000000 0.000000 
	CHANNELS 6 Xposition Yposition Zposition Yrotation Zrotation Xrotation 
	JOINT Lumbar
	{
		OFFSET 0.000000 0.000000 0.000000 
		CHANNELS 3 Zrotation Xrotation Yrotation
		JOINT Neck
		{
			OFFSET 0.000000 0.445665 0.000000 
			CHANNELS 3 Zrotation Xrotation Yrotation
			End Site
			{
				OFFSET 0.000000 0.227535 0.000000 
			}
		}
		JOINT RightShoulder
		{
			OFFSET 0.019635 0.377685 0.194865 
			CHANNELS 3 Zrotation Xrotation Yrotation
			JOINT RightElbow
			{
				OFFSET 0.000000 -0.243375 0.000000 
				CHANNELS 2 Zrotation Yrotation
				JOINT RightWrist
				{
					OFFSET 0.000000 -0.264825 0.000000 
					CHANNELS 2 Zrotation Xrotation
					End Site
					{
						OFFSET 0.006600 -0.176220 0.000990 
					}
				}
			}
		}
		JOINT LeftShoulder
		{
			OFFSET 0.019635 0.377685 -0.194865 
			CHANNELS 3 Zrotation Xrotation Yrotation
			JOINT LeftElbow
			{
				OFFSET 0.000000 -0.243375 0.000000 
				CHANNELS 2 Zrotation Yrotation
				JOINT LeftWrist
				{
					OFFSET 0.000000 -0.264825 0.000000 
					CHANNELS 2 Zrotation Xrotation
					End Site
					{
						OFFSET 0.006600 -0.176220 -0.000990 
					}
				}
			}
		}
	}
	JOINT RightHip
	{
		OFFSET 0.052140 -0.069960 0.075570 
		CHANNELS 3 Zrotation Xrotation Yrotation
		JOINT RightKnee
		{
			OFFSET 0.000000 -0.402270 0.000000 
			CHANNELS 1 Zrotation
			JOINT RightAnkle
			{
				OFFSET 0.000000 -0.404085 0.000000 
				CHANNELS 3 Zrotation Xrotation Yrotation
				End Site
				{
					OFFSET 0.204105 -0.089430 0.008415 
				}
			}
		}
	}
	JOINT LeftHip
	{
		OFFSET 0.052140 -0.069960 -0.075570 
		CHANNELS 3 Zrotation Xrotation Yrotation
		JOINT LeftKnee
		{
			OFFSET 0.000000 -0.402270 0.000000 
			CHANNELS 1 Zrotation
			JOINT LeftAnkle
			{
				OFFSET 0.000000 -0.404085 0.000000 
				CHANNELS 3 Zrotation Xrotation Yrotation
				End Site
				{
					OFFSET 0.204105 -0.089430 -0.008415 
				}
			}
		}
	}
}
MOTION
Frames: 33
Frame Time: 0.02
-0.00023 0.00111 -0.00702 10.22814 -22.90584 -5.78547 44.86705 2.85325 -8.09912 -14.27599 8.34309 -0.52643 -13.81044 -15.54007 0.71215 32.20491 86.72847 4.52004 -0.97317 -31.54711 13.23683 -10.15594 47.47603 -95.05397 11.74457 0.47632 35.97204 -5.02755 -4.48098 -18.21151 -7.92892 -3.53637 -2.52932 38.95679 7.87552 1.70473 -27.55785 -9.16072 5.11621 3.50169
-0.00318 0.00025 -0.0089 9.6561 -22.97135 -5.75009 44.70259 2.57372 -8.44564 -14.40751 8.25013 -0.52694 -14.28294 -15.28629 0.9625 32.8702 86.88488 4.65227 -0.95356 -31.48351 13.82645 -9.68308 47.15895 -95.05558 11.74287 0.43865 36.73814 -5.08141 -4.17967 -18.79121 -8.03294 -3.52977 -2.53243 39.09569 7.73998 1.96958 -27.55341 -9.14487 5.13319 3.51129
-0.00612 -0.0006 -0.01077 9.08524 -23.03654 -5.71502 44.53847 2.29458 -8.79138 -14.53879 8.15732 -0.52745 -14.75496 -15.03277 1.21206 33.53304 87.04099 4.78422 -0.93399 -31.41925 14.41489 -9.21001 46.8413 -95.05751 11.74124 0.40107 37.5029 -5.13472 -3.87886 -19.37061 -8.13678 -3.52324 -2.53557 39.23401 7.60515 2.23422 -27.54894 -9.12898 5.15009 3.52084
-0.00906 -0.00145 -0.01264 8.51486 -23.10182 -5.67977 44.37447 2.01583 -9.13689 -14.66993 8.06463 -0.52796 -15.22615 -14.77969 1.46166 34.19624 87.19694 4.91607 -0.91443 -31.35573 15.0028 -8.73835 46.52494 -95.05919 11.73955 0.36351 38.26681 -5.18836 -3.57835 -19.94879 -8.24051 -3.51667 -2.53867 39.37246 7.47008 2.4984 -27.5445 -9.11316 5.16702 3.5304
-0.01201 -0.0023 -0.01452 7.94356 -23.16748 -5.64416 44.21022 1.73688 -9.48304 -14.80127 7.97185 -0.52847 -15.6975 -14.52655 1.71199 34.86197 87.35314 5.04813 -0.89484 -31.29313 15.59165 -8.26751 46.20975 -95.06041 11.73776 0.32586 39.03167 -5.24269 -3.27766 -20.52663 -8.34434 -3.51001 -2.54174 39.51156 7.33418 2.76242 -27.54011 -9.09744 5.18406 3.54003
-0.01494 -0.00315 -0.01638 7.37366 -23.23171 -5.61024 44.0464 1.45738 -9.82789 -14.93239 7.87898 -0.52898 -16.17093 -14.27224 1.95987 35.51864 87.50905 5.17985 -0.87532 -31.22534 16.17917 -7.78979 45.88696 -95.06382 11.73645 0.28845 39.79613 -5.29387 -2.9767 -21.10923 -8.4482 -3.50374 -2.54502 39.64824 7.20158 3.02826 -27.53548 -9.08119 5.20068 3.54941
-0.01791 -0.00401 -0.01826 6.80154 -23.29867 -5.57291 43.88182 1.17925 -10.17502 -15.06382 7.78639 -0.52949 -16.63951 -14.02056 2.21259 36.19298 87.66535 5.31211 -0.85569 -31.16824 16.76873 -7.32647 45.57978 -95.0629 11.73422 0.2506 40.56056 -5.35132 -2.6762 -21.68181 -8.55192 -3.49671 -2.54787 39.78958 7.06253 3.29054 -27.53133 -9.06596 5.21808 3.55927
-0.02084 -0.00486 -0.02013 6.23152 -23.36325 -5.5388 43.71809 0.89991 -10.51996 -15.19494 7.69357 -0.53 -17.11283 -13.76649 2.4605 36.85074 87.82132 5.44389 -0.83614 -31.10097 17.35641 -6.84981 45.25826 -95.0658 11.73273 0.21315 41.32504 -5.40302 -2.37602 -22.26327 -8.65571 -3.49037 -2.55111 39.92676 6.92935 3.55538 -27.52674 -9.04992 5.23483 3.56872
-0.02373 -0.00569 -0.02196 5.66349 -23.4244 -5.50833 43.55471 0.61869 -10.86278 -15.32586 7.60028 -0.53051 -17.59123 -13.50916 2.70402 37.48953 87.97686 5.57506 -0.81674 -31.02234 17.94215 -6.35659 44.91861 -95.07413 11.73261 0.1762 42.08999 -5.44749 -2.0731 -22.85751 -8.75989 -3.48489 -2.55488 40.05834 6.80365 3.82644 -27.52159 -9.03237 5.25051 3.57753
-0.02687 -0.00662 -0.02397 5.08226 -23.50371 -5.45602 43.38721 0.34708 -11.21947 -15.45848 7.50911 -0.53102 -18.03828 -13.26952 2.97728 38.2414 88.13481 5.7097 -0.79664 -31.01226 18.54014 -5.95784 44.68142 -95.05351 11.72597 0.13641 42.85352 -5.53295 -1.77653 -23.38405 -8.86276 -3.47454 -2.55573 40.2206 6.63584 4.07102 -27.51962 -9.02191 5.27155 3.58959
-0.02948 -0.00733 -0.0256 4.53011 -23.54571 -5.45035 43.22981 0.05604 -11.54579 -15.58711 7.41386 -0.53152 -18.55268 -12.99334 3.18494 38.75218 88.28767 5.83703 -0.77791 -30.85561 19.11147 -5.36051 44.22943 -95.09249 11.73225 0.10259 43.61905 -5.53239 -1.47262 -24.0495 -8.96775 -3.47439 -2.56266 40.31913 6.55625 4.36543 -27.51095 -8.99753 5.28179 3.5951
-0.03074 -0.00749 -0.02616 4.04776 -23.47587 -5.56929 43.08854 -0.29579 -11.79652 -15.70802 7.3042 -0.53203 -19.24419 -12.60962 3.23474 38.61576 88.42639 5.94404 -0.76388 -30.30859 19.61577 -4.20731 43.17119 -95.30863 11.78131 0.08541 44.39815 -5.28933 -1.09861 -25.1307 -9.08396 -3.50315 -2.5873 40.23208 6.72622 4.84785 -27.48349 -8.92606 5.258 3.57983
-0.03146 -0.00744 -0.02633 3.59625 -23.37009 -5.73549 42.9594 -0.6656 -12.01481 -15.82427 7.19117 -0.53253 -20.00452 -12.1909 3.21494 38.23479 88.55987 6.04367 -0.75103 -29.61244 20.09187 -2.8576 41.90116 -95.58198 11.84209 0.07424 45.1773 -4.96104 -0.72664 -26.34363 -9.20133 -3.54203 -2.61792 40.08258 6.9833 5.37084 -27.44936 -8.84227 5.22418 3.55851
-0.03238 -0.00747 -0.02667 3.13741 -23.28726 -5.88255 42.8325 -1.02253 -12.24353 -15.94065 7.08166 -0.53303 -20.73871 -11.79245 3.21206 37.95606 88.69603 6.14695 -0.73703 -28.97649 20.57731 -1.60377 40.73797 -95.82042 11.89257 0.06007 45.9518 -4.67604 -0.38611 -27.47545 -9.3146 -3.57561 -2.64512 39.96924 7.19572 5.84172 -27.4185 -8.7699 5.19786 3.5418
-0.03347 -0.00756 -0.02704 2.65124 -23.1774 -6.02069 42.67361 -1.40004 -12.49247 -16.06569 6.96328 -0.53356 -21.45237 -11.374 3.26964 37.71352 88.83151 6.24931 -0.72565 -28.37117 21.07869 -0.31805 39.52627 -96.09708 11.96364 0.04678 46.74784 -4.37186 0.09178 -28.70281 -9.44282 -3.61194 -2.67514 39.82479 7.43007 6.45467 -27.38661 -8.67284 5.15915 3.51723
-0.03409 -0.00746 -0.02725 2.22826 -23.11407 -6.18753 42.58333 -1.73813 -12.689 -16.17123 6.86316 -0.53402 -22.22385 -10.99081 3.18667 37.33873 88.96642 6.35143 -0.70905 -27.66799 21.53854 0.94312 38.36962 -96.30708 11.99516 0.03341 47.4965 -4.08715 0.28219 -29.75538 -9.54033 -3.64522 -2.70087 39.72799 7.63896 6.78153 -27.3553 -8.62441 5.14381 3.50759
-0.03362 -0.00687 -0.02713 1.98128 -23.1991 -6.43077 42.68752 -1.96977 -12.77136 -16.2271 6.80911 -0.53431 -23.14764 -10.69785 2.71669 36.65056 89.1079 6.45825 -0.67821 -26.72071 21.90416 2.12683 37.38127 -96.3241 11.90968 0.01549 48.13619 -3.87938 -0.31251 -30.35344 -9.55176 -3.66559 -2.71199 39.79831 7.75995 6.30836 -27.32715 -8.71192 5.19603 3.54071
-0.03268 -0.00608 -0.02684 1.79526 -23.33016 -6.6994 42.85892 -2.15981 -12.79814 -16.26287 6.77445 -0.53454 -24.12472 -10.44472 2.11058 35.83968 89.24797 6.56443 -0.64202 -25.68227 22.22599 3.27111 36.46218 -96.27114 11.78493 -0.00219 48.72431 -3.69353 -1.19736 -30.76044 -9.5327 -3.6831 -2.71895 39.91486 7.85175 5.54723 -27.29982 -8.84886 5.27195 3.589
-0.03192 -0.00539 -0.02661 1.5752 -23.43289 -6.95091 42.99425 -2.36449 -12.83515 -16.30591 6.73437 -0.53482 -25.07209 -10.18346 1.57738 35.08992 89.38389 6.66859 -0.60795 -24.69215 22.55955 4.40905 35.53493 -96.24677 11.68132 -0.0181 49.32148 -3.49637 -1.95556 -31.21439 -9.52795 -3.70303 -2.72854 39.99713 7.95421 4.91625 -27.27216 -8.96428 5.33673 3.63036
-0.03131 -0.00466 -0.02644 1.3824 -23.56558 -7.22845 43.15309 -2.58797 -12.93333 -16.35692 6.6801 -0.53502 -26.04802 -9.87818 0.99546 34.3076 89.53883 6.78227 -0.57511 -23.66692 22.92843 5.65913 34.50245 -96.23773 11.56404 -0.04171 49.97864 -3.30271 -2.69442 -31.83842 -9.52026 -3.7179 -2.73477 40.13376 8.06998 4.28413 -27.2441 -9.07601 5.40301 3.67189
-0.03027 -0.00396 -0.02612 1.14763 -23.64737 -7.45618 43.27907 -2.76198 -12.89276 -16.38629 6.65972 -0.53536 -26.97248 -9.67536 0.48319 33.56892 89.65515 6.87603 -0.53857 -22.69609 23.21147 6.66012 33.7076 -96.1797 11.46599 -0.04933 50.49956 -3.10711 -3.53917 -32.06473 -9.51277 -3.74336 -2.74748 40.16831 8.1509 3.59249 -27.21713 -9.20642 5.47157 3.71648
-0.02825 -0.00338 -0.0255 0.77632 -23.57682 -7.54834 43.29539 -2.81096 -12.47135 -16.36355 6.73107 -0.53611 -27.77269 -9.73911 0.20194 32.96814 89.65435 6.91521 -0.49184 -21.88987 23.2875 7.00974 33.5601 -96.00095 11.42895 -0.01283 50.64759 -2.91001 -4.63307 -31.20747 -9.50146 -3.79105 -2.77413 39.91537 8.13405 2.74544 -27.19313 -9.38411 5.54361 3.76803
-0.0258 -0.00283 -0.02472 0.3621 -23.45378 -7.58766 43.27678 -2.81119 -11.91511 -16.31916 6.83532 -0.537 -28.5126 -9.90636 -0.00399 32.42005 89.61667 6.93435 -0.4418 -21.14357 23.2752 7.10209 33.64927 -95.77578 11.41305 0.03965 50.66141 -2.70925 -5.81806 -29.96207 -9.49337 -3.85068 -2.80822 39.55732 8.08414 1.85905 -27.17013 -9.57751 5.61662 3.82176
-0.02349 -0.00226 -0.02399 -0.02954 -23.35527 -7.64563 43.27569 -2.8328 -11.42745 -16.28307 6.92266 -0.53782 -29.26019 -10.03027 -0.24908 31.85621 89.60311 6.9625 -0.39413 -20.37602 23.29082 7.29615 33.62535 -95.57285 11.38826 0.08481 50.74356 -2.50413 -6.94348 -28.91444 -9.49186 -3.91006 -2.84228 39.24407 8.05486 1.03167 -27.14664 -9.75866 5.68729 3.87306
-0.02138 -0.00168 -0.02339 -0.43417 -23.25538 -7.72742 43.26984 -2.85645 -10.90457 -16.25318 7.01902 -0.53868 -30.09518 -10.13846 -0.48298 31.2495 89.55883 6.99101 -0.34266 -19.58073 23.35648 7.56125 33.62554 -95.36147 11.35831 0.13044 50.7955 -2.32378 -8.15681 -27.76911 -9.45628 -3.94828 -2.86256 38.94512 8.00168 0.02335 -27.12352 -9.96304 5.76678 3.93096
-0.01877 -0.00114 -0.02247 -0.82002 -23.14544 -7.74641 43.26495 -2.86454 -10.42679 -16.20498 7.10405 -0.53949 -30.73033 -10.30534 -0.71448 30.75101 89.56928 7.01409 -0.29833 -18.85768 23.29752 7.60766 33.63277 -95.15911 11.34562 0.17863 50.87596 -2.09239 -9.20357 -26.73868 -9.49164 -4.03247 -2.91275 38.59057 7.98991 -0.61716 -27.09961 -10.1222 5.82783 3.97545
-0.01495 -0.00065 -0.02075 -1.16708 -23.01956 -7.6074 43.2693 -2.84375 -10.08113 -16.11591 7.15084 -0.54011 -30.85052 -10.59299 -1.00653 30.49976 89.74398 7.02668 -0.2751 -18.32772 22.91648 7.19664 33.58732 -94.98046 11.36728 0.23201 51.09562 -1.70624 -9.77784 -26.11191 -9.73217 -4.24905 -3.04886 38.11034 8.1089 -0.20018 -27.0754 -10.1518 5.83742 3.98209
-0.01063 -0.00019 -0.0187 -1.48965 -22.8855 -7.40661 43.27607 -2.80859 -9.79072 -16.00844 7.18493 -0.54067 -30.7665 -10.93908 -1.28755 30.36414 89.97393 7.03467 -0.25914 -17.86677 22.41353 6.55726 33.5447 -94.81534 11.40735 0.287 51.34367 -1.27134 -10.17805 -25.61676 -10.04208 -4.50993 -3.21384 37.57731 8.26974 0.58422 -27.04993 -10.13524 5.82832 3.97511
-0.0065 0.00027 -0.01678 -1.80829 -22.75543 -7.23208 43.28241 -2.77903 -9.49175 -15.90666 7.22386 -0.54125 -30.76216 -11.26842 -1.54277 30.20073 90.17632 7.04496 -0.23943 -17.37003 21.96589 5.97009 33.50775 -94.65241 11.44443 0.33992 51.56098 -0.86848 -10.65008 -25.06793 -10.31403 -4.74512 -3.36229 37.06659 8.40555 1.18014 -27.02371 -10.14014 5.82792 3.97451
-0.00254 0.00077 -0.01495 -2.19198 -22.62172 -7.06257 43.28385 -2.75241 -9.11747 -15.81546 7.26732 -0.54185 -30.81428 -11.55922 -1.93136 29.93178 90.38913 7.05336 -0.22124 -16.89636 21.51416 5.59883 33.44322 -94.45197 11.45925 0.39913 51.84918 -0.42438 -11.15622 -24.47944 -10.61399 -5.0043 -3.52554 36.55866 8.56379 1.86334 -27.00327 -10.14365 5.82685 3.97331
0.00191 0.00119 -0.01284 -2.43379 -22.49518 -6.86966 43.29762 -2.71595 -8.91579 -15.69803 7.29857 -0.5424 -30.6972 -11.94382 -2.03317 29.91292 90.59213 7.06525 -0.20197 -16.38733 21.04487 4.71796 33.44188 -94.33432 11.52488 0.44533 51.99788 -0.05389 -11.54877 -24.01002 -10.87107 -5.22372 -3.66456 36.03462 8.68792 2.45498 -26.97029 -10.13881 5.82249 3.96994
0.00753 0.00134 -0.01011 -2.2903 -22.38307 -6.61829 43.3351 -2.66455 -9.17056 -15.51351 7.29306 -0.54282 -30.19437 -12.56433 -1.40731 30.52822 90.77077 7.0853 -0.17538 -15.78695 20.54259 2.56564 33.5445 -94.43539 11.72338 0.45561 51.7577 0.09495 -11.66922 -23.83818 -11.00118 -5.32367 -3.73089 35.47211 8.68842 2.68319 -26.90529 -10.12277 5.81568 3.96507
0.01364 0.00142 -0.00709 -2.00487 -22.27992 -6.34731 43.38666 -2.60246 -9.59891 -15.30313 7.27655 -0.54319 -29.52154 -13.2784 -0.48145 31.39715 90.93579 7.10995 -0.14791 -15.14284 20.0299 -0.10391 33.72324 -94.62091 11.9728 0.45253 51.37607 0.16927 -11.68126 -23.78331 -11.08417 -5.38177 -3.77154 34.89715 8.65682 2.81029 -26.82779 -10.09988 5.80581 3.95825
